HIERARCHY
ROOT Hips
{
	OFFSET -3.958830 18.904000 13.208200
	CHANNELS 6 Xposition Yposition Zposition Zrotation Yrotation Xrotation 
	JOINT LHipJoint
	{
		OFFSET 0.000000 0.000000 0.000000
		CHANNELS 3 Zrotation Yrotation Xrotation
		JOINT LeftUpLeg
		{
			OFFSET 1.800000 -1.400000 0.085000
			CHANNELS 3 Zrotation Yrotation Xrotation
			JOINT LeftLeg
			{
				OFFSET 2.215000 -6.000000 0.000000
				CHANNELS 3 Zrotation Yrotation Xrotation
				JOINT LeftFoot
				{
					OFFSET 2.500000 -6.900000 0.000000
					CHANNELS 3 Zrotation Yrotation Xrotation
					JOINT LeftToeBase
					{
						OFFSET 0.200000 -0.500000 1.950000
						CHANNELS 3 Zrotation Yrotation Xrotation
						End Site
						{
							OFFSET 0.000000 0.000000 0.000000
						}
					}
				}
			}
		}
	}
	JOINT RHipJoint
	{
		OFFSET 0.000000 0.000000 0.000000
		CHANNELS 3 Zrotation Yrotation Xrotation
		JOINT RightUpLeg
		{
			OFFSET -1.800000 -1.400000 0.085000
			CHANNELS 3 Zrotation Yrotation Xrotation
			JOINT RightLeg
			{
				OFFSET -2.215000 -6.000000 0.000000
				CHANNELS 3 Zrotation Yrotation Xrotation
				JOINT RightFoot
				{
					OFFSET -2.500000 -6.900000 0.000000
					CHANNELS 3 Zrotation Yrotation Xrotation
					JOINT RightToeBase
					{
						OFFSET -0.200000 -0.500000 1.950000
						CHANNELS 3 Zrotation Yrotation Xrotation
						End Site
						{
							OFFSET 0.000000 0.000000 0.000000
						}
					}
				}
			}
		}
	}
	JOINT LowerBack
	{
		OFFSET 0.000000 0.000000 0.000000
		CHANNELS 3 Zrotation Yrotation Xrotation
		JOINT Spine
		{
			OFFSET -0.087000 1.940000 -0.288900
			CHANNELS 3 Zrotation Yrotation Xrotation
			JOINT Spine1
			{
				OFFSET 0.000000 1.950000 0.060000
				CHANNELS 3 Zrotation Yrotation Xrotation
				JOINT Neck
				{
					OFFSET 0.000000 0.000000 0.000000
					CHANNELS 3 Zrotation Yrotation Xrotation
					JOINT Neck1
					{
						OFFSET 0.000000 1.600000 0.340000
						CHANNELS 3 Zrotation Yrotation Xrotation
						JOINT Head
						{
							OFFSET 0.000000 1.667000 -0.240000
							CHANNELS 3 Zrotation Yrotation Xrotation
							End Site
							{
								OFFSET 0.000000 0.000000 0.000000
							}
						}
					}
				}
				JOINT LeftShoulder
				{
					OFFSET 0.000000 0.000000 0.000000
					CHANNELS 3 Zrotation Yrotation Xrotation
					JOINT LeftArm
					{
						OFFSET 2.700000 1.550000 -0.730000
						CHANNELS 3 Zrotation Yrotation Xrotation
						JOINT LeftForeArm
						{
							OFFSET 5.450000 0.000000 0.000000
							CHANNELS 3 Zrotation Yrotation Xrotation
							JOINT LeftHand
							{
								OFFSET 3.450000 0.000000 0.000000
								CHANNELS 3 Zrotation Yrotation Xrotation
								JOINT LeftHandIndex1
								{
									OFFSET 0.750000 0.000000 0.000000
									CHANNELS 3 Zrotation Yrotation Xrotation
									End Site
									{
										OFFSET 0.000000 0.000000 0.000000
									}
								}
							}
						}
					}
				}
				JOINT RightShoulder
				{
					OFFSET 0.000000 0.000000 0.000000
					CHANNELS 3 Zrotation Yrotation Xrotation
					JOINT RightArm
					{
						OFFSET -2.700000 1.550000 -0.730000
						CHANNELS 3 Zrotation Yrotation Xrotation
						JOINT RightForeArm
						{
							OFFSET -5.450000 0.000000 0.000000
							CHANNELS 3 Zrotation Yrotation Xrotation
							JOINT RightHand
							{
								OFFSET -3.450000 0.000000 0.000000
								CHANNELS 3 Zrotation Yrotation Xrotation
								JOINT RightHandIndex1
								{
									OFFSET -0.750000 0.000000 0.000000
									CHANNELS 3 Zrotation Yrotation Xrotation
									End Site
									{
										OFFSET 0.000000 0.000000 0.000000
									}
								}
							}
						}
					}
				}
			}
		}
	}
}
MOTION
Frames: 9
Frame Time: 0.016667
0.411260 17.297510 -1.358200 -10.610652 -39.559970 13.184915 -15.270857 13.382441 2.993799 1.205092 -0.813337 -7.637098 -6.566341 4.037080 5.459091 -0.686014 4.186319 3.560056 0.972910 0.669660 0.290890 18.240872 -10.357646 2.845560 -1.028408 2.930202 -21.708701 6.102355 -4.036300 11.369063 -0.246106 -3.194245 3.403250 0.540090 0.815310 0.936290 -3.233013 -2.418626 -6.888412 7.150915 -2.694887 4.893632 0.713259 -3.441028 1.370385 1.700027 -0.008790 -5.360403 -0.451419 9.299245 22.876361 -1.144150 7.834710 -5.212900 -14.379883 0.595145 -0.160776 -22.345556 -7.475760 0.704073 -1.194178 -17.918527 -0.447556 -4.022696 3.306591 0.535640 0.712370 0.055320 0.878320 11.980632 -1.552635 1.141952 26.582480 3.470008 -2.752731 10.506761 30.519890 1.868415 1.695171 -2.149684 -0.154060 0.005430 -0.494610 0.089640 
0.417240 17.295630 -1.353620 -10.906856 -39.753280 13.549075 -15.263728 13.364140 2.971848 1.255679 -0.828822 -7.779334 -6.585207 4.069818 5.748262 -0.653063 4.165189 3.561665 0.982760 0.692610 0.268650 18.249526 -10.339793 2.888977 -0.848517 2.948857 -21.798454 6.151392 -3.852974 10.113203 -0.230130 -3.154930 3.427185 0.544030 0.822800 0.954200 -3.260144 -2.380498 -6.910033 7.524611 -2.884676 4.835896 0.695329 -3.643217 1.047474 1.839378 0.212597 -5.294604 -0.063189 9.026612 22.946915 -0.979350 7.591390 -4.236600 -13.983276 0.888598 -0.233509 -22.018524 -7.648097 0.741912 0.138434 -17.445678 -0.574125 -4.024076 3.357150 0.497620 0.726450 0.049610 0.903990 11.312075 -2.017755 1.012311 25.961753 3.770436 -2.423061 10.103259 30.268784 1.804881 1.710299 -2.198323 -0.126890 -0.030670 -0.515890 0.119250 
0.425450 17.290230 -1.359350 -10.927949 -40.621942 13.761983 -15.307436 13.306695 2.973057 1.047801 -0.821859 -7.689713 -6.833570 4.038040 5.259037 -0.653073 4.159657 3.561295 1.018940 0.730740 0.308490 18.225311 -10.246284 2.929091 -0.977887 2.951575 -21.992353 6.504667 -3.579435 7.883351 -0.219574 -3.084639 3.455186 0.573370 0.799950 0.955470 -3.176275 -2.410508 -6.942497 6.668599 -2.779411 4.653843 1.493750 -3.679846 1.315679 1.997281 0.772126 -5.270506 0.864745 8.341431 23.007441 -1.601140 7.576510 -4.041990 -13.510875 0.843986 -0.193484 -20.919551 -7.773607 0.704129 2.485500 -17.276978 -0.812934 -4.012473 3.370804 0.490380 0.731080 0.058020 0.916900 10.648427 -2.260949 0.937609 24.367204 4.012517 -2.177025 8.422593 30.072064 1.474500 1.712512 -2.236305 -0.125810 -0.051820 -0.559080 0.114250 
0.425910 17.281160 -1.363250 -10.605922 -42.126257 13.746147 -15.368929 13.180184 2.979237 0.527064 -0.729356 -7.117755 -7.259374 3.970263 4.198191 -0.656231 4.180460 3.536682 1.061510 0.775050 0.371660 18.201810 -10.136744 2.945461 -1.476518 2.940094 -22.474413 6.782180 -3.274262 5.596407 -0.212337 -3.039900 3.434575 0.612010 0.752650 0.963600 -3.100971 -2.364007 -6.924639 5.268397 -2.447644 3.901967 2.052478 -3.635155 2.736985 2.196860 1.592287 -5.514370 2.254542 7.291998 22.646546 -2.545960 7.455610 -4.117070 -12.683991 0.161874 0.159717 -19.235778 -7.741280 0.661427 5.169457 -15.894824 -1.117416 -4.025071 3.400956 0.472620 0.732120 0.063320 0.897140 9.518643 -2.097185 1.150411 23.562350 3.967402 -2.164080 6.136714 29.621322 0.848308 1.716788 -2.287495 -0.114360 -0.096040 -0.589770 0.094490 
0.437680 17.285550 -1.366930 -10.911609 -43.134633 13.840215 -15.393477 13.149852 2.970677 0.517656 -0.691314 -6.844264 -7.509499 4.030351 4.193011 -0.679664 4.228093 3.513168 1.083660 0.769420 0.425450 18.187280 -10.044292 3.025645 -1.451718 2.998777 -22.651921 6.793829 -2.949404 3.188763 -0.223714 -2.972299 3.442881 0.612990 0.711370 0.966450 -3.054535 -2.412915 -7.009817 5.041528 -2.450536 4.245494 2.527681 -3.690490 2.913229 2.306916 1.808318 -5.792962 2.585759 6.230400 22.875683 -3.400730 6.972060 -4.719080 -12.213874 -0.266253 0.316469 -17.380673 -7.624144 0.733511 6.363542 -14.419907 -1.219664 -4.017435 3.380485 0.516210 0.709700 0.081880 0.879300 8.836252 -1.744442 1.481022 21.657194 3.566617 -2.135627 4.588214 29.291703 0.578593 1.714091 -2.288166 -0.125210 -0.110760 -0.602610 0.062590 
0.441940 17.287390 -1.364100 -10.978131 -44.665969 13.805262 -15.424683 13.081869 2.951201 0.113111 -0.554548 -6.320194 -7.581127 4.055115 3.972439 -0.709271 4.317123 3.501300 1.047020 0.714710 0.416030 18.179558 -9.966328 3.078207 -1.505380 3.077783 -23.119927 6.425350 -2.642448 1.192918 -0.197989 -2.940098 3.458315 0.605570 0.744060 0.963540 -3.029922 -2.380416 -7.024801 4.528479 -2.145911 4.023312 2.946109 -3.492727 3.272923 2.354562 2.116626 -5.807310 3.099188 5.179205 22.683253 -4.338570 6.339580 -4.373400 -12.063647 -0.452998 0.263554 -15.171195 -7.719105 0.900679 7.300134 -13.048081 -1.293576 -4.097121 3.337485 0.507330 0.746430 0.039960 0.851670 8.614705 -1.699903 1.615551 19.581414 3.196117 -2.000717 2.902823 28.965735 0.272519 1.677418 -2.281716 -0.156450 -0.086070 -0.557390 0.038140 
0.435480 17.279720 -1.347160 -11.299278 -46.710534 14.098345 -15.442838 12.945815 2.945326 -0.326855 -0.351406 -5.284566 -7.453950 3.898536 2.699102 -0.734574 4.399509 3.508798 1.037540 0.699850 0.405310 18.197999 -9.897235 3.121358 -1.292407 3.270076 -23.974545 6.063287 -2.376436 -0.224976 -0.167634 -2.914000 3.472822 0.631450 0.799460 0.950860 -3.111589 -2.230149 -7.008224 4.661294 -1.732098 3.382122 2.943317 -3.164763 3.996515 2.200519 2.057078 -5.886873 3.075600 4.632895 21.810258 -4.514040 5.529400 -3.976230 -11.430628 -0.592673 0.293170 -13.378373 -7.992543 1.228636 7.181257 -10.883444 -1.278199 -4.174504 3.298461 0.485160 0.788080 -0.010930 0.850850 8.223255 -1.479929 1.796375 17.641348 2.653467 -1.893766 1.328930 29.180256 -0.047810 1.632153 -2.304458 -0.193430 -0.041470 -0.533970 0.032700 
0.442620 17.278680 -1.335640 -11.162287 -47.920303 13.922164 -15.472754 12.871350 2.931744 -0.894111 -0.215650 -4.825087 -7.479989 3.868579 2.361233 -0.783184 4.479966 3.484140 1.052530 0.690940 0.416250 18.195358 -9.794295 3.170899 -1.609108 3.343695 -24.523573 5.785533 -2.108923 -2.143108 -0.174948 -2.922090 3.440653 0.653310 0.819690 0.967400 -3.135076 -2.251106 -7.010668 4.467056 -1.636082 3.029952 3.208771 -3.110252 4.590586 1.854976 1.749372 -5.833543 2.559486 4.214445 21.383878 -4.562190 4.573900 -4.341260 -10.704293 -0.554098 0.240853 -12.029064 -8.661713 1.630250 6.764109 -8.882676 -1.316828 -4.236101 3.290299 0.493940 0.799740 -0.034730 0.836280 8.160111 -1.287595 1.792419 15.089167 2.566985 -1.580231 0.386936 28.503107 -0.202373 1.597937 -2.316122 -0.207520 -0.021750 -0.497480 0.015010 
0.447490 17.265300 -1.338140 -11.048755 -49.285077 14.301642 -15.497376 12.759756 2.921841 -1.403639 -0.133365 -4.807739 -7.789647 3.800209 1.649981 -0.869121 4.560808 3.478210 1.073120 0.746800 0.397670 18.205484 -9.712383 3.187649 -1.620154 3.624878 -26.402621 5.262087 -1.918726 -2.345128 -0.136370 -2.839387 3.461010 0.746000 0.902260 0.949420 -3.206228 -2.182543 -6.940987 4.187001 -1.615960 2.200909 3.068407 -3.141587 5.304115 1.531557 1.711555 -5.532374 2.595521 4.127207 19.877376 -4.340220 3.692270 -4.984940 -9.840531 -0.226476 0.057494 -10.127549 -9.326812 2.154453 6.035812 -6.285811 -1.355361 -4.359503 3.216209 0.454200 0.861590 -0.085150 0.846240 7.938426 -1.634776 1.400826 13.432259 3.231804 -1.071130 -0.060093 28.184944 -0.366354 1.518525 -2.321693 -0.250230 0.084720 -0.459520 0.019540 
